<svg xmlns="http://www.w3.org/2000/svg" viewBox="0 0 64 64" role="img" aria-labelledby="title">
  <title>Budget favicon</title>
  <defs>
    <filter id="soft-shadow" x="-20%" y="-20%" width="140%" height="140%">
      <feDropShadow dx="0" dy="2" stdDeviation="1.4" flood-color="#3a2927" flood-opacity="0.22"/>
    </filter>
  </defs>

  <rect width="64" height="64" rx="14" fill="#5f6f49"/>
  <circle cx="32" cy="34" r="24" fill="#fffdf6" filter="url(#soft-shadow)"/>

  <g fill="none" stroke-linecap="round" stroke-linejoin="round">
    <path d="M28 13 L35 28" stroke="#3a2927" stroke-width="7"/>
    <path d="M28 13 L35 28" stroke="#f4d45f" stroke-width="4"/>
    <path d="M19 11 L44 4" stroke="#fffdf6" stroke-width="9"/>
    <path d="M19 11 L44 4" stroke="#3a2927" stroke-width="6"/>
    <path d="M19 11 L44 4" stroke="#f4d45f" stroke-width="4"/>
    <path d="M35 28 C34 23 37 19 42 17" stroke="#3a2927" stroke-width="7"/>
    <path d="M35 28 C34 23 37 19 42 17" stroke="#f4d45f" stroke-width="4"/>
  </g>

  <path
    d="M17 42 C16 31 22 23 32 22 C43 21 49 29 48 39 C48 47 42 53 32 53 C23 53 18 49 17 42 Z"
    fill="#3a2927"
  />
  <path
    d="M20 43 C19 35 24 28 32 27 C41 26 46 32 45 40 C45 46 40 50 32 50 C25 50 21 48 20 43 Z"
    fill="#f7dfd7"
  />
  <path
    d="M22 36 C25 31 28 27 34 27 C29 30 27 36 27 43 C24 43 22 41 22 36 Z"
    fill="#3a2927"
  />

  <g filter="url(#soft-shadow)">
    <circle cx="44" cy="44" r="14" fill="#f4d45f" stroke="#fffdf6" stroke-width="4"/>
    <circle cx="44" cy="44" r="10" fill="#e6c95a" stroke="#b99135" stroke-width="2"/>
    <g fill="none" stroke="#3a2927" stroke-linecap="round" stroke-linejoin="round" stroke-width="3">
      <path d="M39 38 L44 44 L49 38"/>
      <path d="M44 44 V51"/>
      <path d="M39 44 H49"/>
      <path d="M40 48 H48"/>
    </g>
  </g>
</svg>
