<svg xmlns="http://www.w3.org/2000/svg" viewBox="0 0 1200 630" role="img" aria-labelledby="title">
  <title>せお家の家計簿 OGP画像</title>

  <rect width="1200" height="630" fill="#5f6f49"/>
  <circle cx="165" cy="120" r="170" fill="#fffdf6" opacity="0.12"/>
  <circle cx="1040" cy="530" r="220" fill="#f4d45f" opacity="0.16"/>

  <rect x="90" y="85" width="1020" height="460" rx="42" fill="#fffdf6"/>
  <rect x="90" y="85" width="1020" height="460" rx="42" fill="none" stroke="#e6c95a" stroke-width="6"/>

  <g transform="translate(160 150) scale(4.4)">
    <rect width="64" height="64" rx="14" fill="#5f6f49"/>
    <circle cx="32" cy="34" r="23" fill="#fffdf6"/>

    <g fill="none" stroke-linecap="round" stroke-linejoin="round">
      <path d="M31 18 L37 32" stroke="#3a2927" stroke-width="6"/>
      <path d="M31 18 L37 32" stroke="#f4d45f" stroke-width="3"/>
      <path d="M18 14 L46 8" stroke="#3a2927" stroke-width="9"/>
      <path d="M18 14 L46 8" stroke="#fffdf6" stroke-width="6"/>
      <path d="M18 14 L46 8" stroke="#f4d45f" stroke-width="4"/>
    </g>

    <circle cx="35" cy="40" r="17" fill="#f4d45f" stroke="#3a2927" stroke-width="4"/>
    <circle cx="35" cy="40" r="12" fill="#e6c95a" stroke="#b99135" stroke-width="2"/>

    <g fill="none" stroke="#3a2927" stroke-linecap="round" stroke-linejoin="round" stroke-width="4">
      <path d="M28 33 L35 40 L42 33"/>
      <path d="M35 40 V49"/>
      <path d="M28 40 H42"/>
      <path d="M29 45 H41"/>
    </g>
  </g>

  <text
    x="500"
    y="265"
    fill="#17202c"
    font-family="system-ui, -apple-system, BlinkMacSystemFont, 'Segoe UI', sans-serif"
    font-size="72"
    font-weight="800"
  >せお家の家計簿</text>
  <text
    x="505"
    y="345"
    fill="#5f6f49"
    font-family="system-ui, -apple-system, BlinkMacSystemFont, 'Segoe UI', sans-serif"
    font-size="34"
    font-weight="700"
  >毎月の出費がひと目でわかるページ</text>
</svg>
